<?xml version="1.0" encoding="UTF-8" standalone="no"?>
<svg
   height="32"
   width="28"
   viewBox="0 0 448 512"
   version="1.1"
   id="svg1"
   sodipodi:docname="hand-pointer-solid.svg"
   inkscape:version="1.3.2 (091e20e, 2023-11-25, custom)"
   xmlns:inkscape="http://www.inkscape.org/namespaces/inkscape"
   xmlns:sodipodi="http://sodipodi.sourceforge.net/DTD/sodipodi-0.dtd"
   xmlns="http://www.w3.org/2000/svg"
   xmlns:svg="http://www.w3.org/2000/svg">
  <defs
     id="defs1" />
  <sodipodi:namedview
     id="namedview1"
     pagecolor="#ffffff"
     bordercolor="#000000"
     borderopacity="0.25"
     inkscape:showpageshadow="2"
     inkscape:pageopacity="0.0"
     inkscape:pagecheckerboard="0"
     inkscape:deskcolor="#d1d1d1"
     inkscape:zoom="27.84375"
     inkscape:cx="13.485971"
     inkscape:cy="15.712682"
     inkscape:window-width="1920"
     inkscape:window-height="1129"
     inkscape:window-x="-8"
     inkscape:window-y="-8"
     inkscape:window-maximized="1"
     inkscape:current-layer="svg1" />
  <!--!Font Awesome Free 6.7.2 by @fontawesome - https://fontawesome.com License - https://fontawesome.com/license/free Copyright 2024 Fonticons, Inc.-->
  <path
     fill="#ffa348"
     d="m 132.60334,48.459256 c 0,-21.263889 17.14895,-38.4866777 38.32167,-38.4866777 21.17274,0 38.32169,17.2227887 38.32169,38.4866777 V 191.0524 c 8.14335,-7.31248 18.87342,-11.73844 30.65733,-11.73844 19.73567,0 36.59721,12.50817 43.1119,30.01961 8.43077,-8.94815 20.31048,-14.62493 33.53147,-14.62493 24.23846,0 44.06992,18.76225 45.89021,42.62399 8.14334,-7.40869 18.96922,-11.83466 30.75314,-11.83466 25.38811,0 45.986,20.68659 45.986,46.18402 v 46.18401 15.39467 46.18402 c 0,68.0252 -54.89579,123.15737 -122.62935,123.15737 h -15.32868 -61.31469 -0.0958 -4.98182 c -4.79022,0 -9.48462,-0.28866 -14.08322,-0.96217 C 167.76348,496.25176 118.99914,468.92621 86.617328,425.6287 L 17.638309,333.26067 c -12.7419572,-17.03035 -9.2930063,-41.08453 7.664336,-53.88134 16.957342,-12.79683 40.908391,-9.33302 53.650348,7.69733 l 53.650347,71.87387 z M 239.90403,302.47134 c 0,-8.46707 -6.8979,-15.39468 -15.32867,-15.39468 -8.43076,0 -15.32866,6.92761 -15.32866,15.39468 v 92.36802 c 0,8.46707 6.8979,15.39467 15.32866,15.39467 8.43077,0 15.32867,-6.9276 15.32867,-15.39467 z m 45.98602,-15.39468 c -8.43077,0 -15.32867,6.92761 -15.32867,15.39468 v 92.36802 c 0,8.46707 6.8979,15.39467 15.32867,15.39467 8.43077,0 15.32867,-6.9276 15.32867,-15.39467 v -92.36802 c 0,-8.46707 -6.8979,-15.39468 -15.32867,-15.39468 z m 76.64335,15.39468 c 0,-8.46707 -6.8979,-15.39468 -15.32867,-15.39468 -8.43076,0 -15.32867,6.92761 -15.32867,15.39468 v 92.36802 c 0,8.46707 6.89791,15.39467 15.32867,15.39467 8.43077,0 15.32867,-6.9276 15.32867,-15.39467 z"
     id="path1"
     style="fill:#ffffff;fill-opacity:1;stroke:#000000;stroke-width:17.8502;stroke-dasharray:none;stroke-opacity:1" />
  <path
     style="fill:#ffffff;fill-opacity:1;stroke:#000000;stroke-width:18.592;stroke-linecap:round;stroke-linejoin:round;stroke-dasharray:none;stroke-opacity:1"
     d="M 305.70595,71.254769 286.74299,104.00898"
     id="path3"
     sodipodi:nodetypes="cc" />
  <path
     style="fill:#ffffff;fill-opacity:1;stroke:#000000;stroke-width:18.592;stroke-linecap:round;stroke-linejoin:round;stroke-dasharray:none;stroke-opacity:1"
     d="m 235.0258,69.530863 71.25478,10e-7 -19.53759,-35.627384"
     id="path2"
     sodipodi:nodetypes="ccc" />
  <g
     id="g5">
    <g
       id="g6">
      <path
         style="fill:#ffffff;fill-opacity:1;stroke:#000000;stroke-width:18.592;stroke-linecap:round;stroke-linejoin:round;stroke-dasharray:none;stroke-opacity:1"
         d="M 33.328843,67.232323 58.612795,99.411898"
         id="path5"
         sodipodi:nodetypes="cc" />
      <path
         style="fill:#ffffff;fill-opacity:1;stroke:#000000;stroke-width:18.592;stroke-linecap:round;stroke-linejoin:round;stroke-dasharray:none;stroke-opacity:1"
         d="M 103.43434,67.232323 H 33.328843 L 58.612794,37.351291"
         id="path4"
         sodipodi:nodetypes="ccc" />
    </g>
  </g>
</svg>
